# xmcd
#
# Track frame offsets:
#	187
#	20495
#	30260
#	38127
#	47185
#	51730
#	62367
#	70275
#	76200
#	84547
#	94100
#	103330
#	113065
#	122040
#	132507
#	140330
#	146380
#	153315
#	158297
#	164377
#	173680
#	178395
#	193100
#	215152
#	221155
#	231085
#	240120
#	247225
#	253835
#	264847
#
# Disc length: 3799 seconds
#
# Revision: 1
# Processed by: cddbd v1.5.1PL0 Copyright (c) Steve Scherf et al.
# Submitted via: CDex 1.50Beta5
#
DISCID=ac0ed51e
DTITLE=桃田佳世子 - メタルファイター MIKU 音楽集
DYEAR=1994
DGENRE=
TTITLE0=桃田佳世子/風になるまで
TTITLE1=アニメ・サントラ/炎のリング
TTITLE2=アニメ・サントラ/オーフル・エナミー
TTITLE3=アニメ・サントラ/ハード・トレーニング
TTITLE4=アニメ・サントラ/戦いの予感
TTITLE5=アニメ・サントラ/影の軍団
TTITLE6=アニメ・サントラ/背徳のリズム
TTITLE7=アニメ・サントラ/あこがれ
TTITLE8=アニメ・サントラ/プロレスが好きだから
TTITLE9=アニメ・サントラ/プリティフォーの誰も知らない秘密 ミク編
TTITLE10=アニメ・サントラ/プリティフォーの誰も知らない秘密 サヤカ編
TTITLE11=アニメ・サントラ/プリティフォーの誰も知らない秘密 ギンコ編
TTITLE12=アニメ・サントラ/プリティフォーの誰も知らない秘密 ナナ編
TTITLE13=アニメ・サントラ/華麗なる戦い
TTITLE14=アニメ・サントラ/迫りくる危機
TTITLE15=アニメ・サントラ/哀しみに染めて
TTITLE16=アニメ・サントラ/強く美しく
TTITLE17=アニメ・サントラ/オニのいぬ間に
TTITLE18=アニメ・サントラ/ときめき
TTITLE19=アニメ・サントラ/プリティ・エナジー
TTITLE20=アニメ・サントラ/明日の勝利
TTITLE21=吉田古奈美/みくちゃん爆発する*ドラマ
TTITLE22=吉田古奈美/Dream Sensation
TTITLE23=アニメ・サントラ/蠢く陰謀
TTITLE24=アニメ・サントラ/ダーティー・グルーブ
TTITLE25=アニメ・サントラ/とまどい
TTITLE26=アニメ・サントラ/4人はアイドル
TTITLE27=アニメ・サントラ/憂いの淵
TTITLE28=アニメ・サントラ/希望の果て
TTITLE29=桃田佳世子/瞳は1000カラット
EXTD=
EXTT0=
EXTT1=
EXTT2=
EXTT3=
EXTT4=
EXTT5=
EXTT6=
EXTT7=
EXTT8=
EXTT9=
EXTT10=
EXTT11=
EXTT12=
EXTT13=
EXTT14=
EXTT15=
EXTT16=
EXTT17=
EXTT18=
EXTT19=
EXTT20=
EXTT21=
EXTT22=
EXTT23=
EXTT24=
EXTT25=
EXTT26=
EXTT27=
EXTT28=
EXTT29=
PLAYORDER=
